<?xml version="1.0" encoding="utf-8"?>
<!-- Generator: Adobe Illustrator 16.0.0, SVG Export Plug-In . SVG Version: 6.00 Build 0)  -->
<!DOCTYPE svg PUBLIC "-//W3C//DTD SVG 1.1//EN" "http://www.w3.org/Graphics/SVG/1.1/DTD/svg11.dtd">
<svg version="1.1" id="Layer_1" xmlns="http://www.w3.org/2000/svg" xmlns:xlink="http://www.w3.org/1999/xlink" x="0px" y="0px"
	 width="448.863px" height="28.875px" viewBox="0 0 448.863 28.875" enable-background="new 0 0 448.863 28.875"
	 xml:space="preserve">
<path fill="#FFFFFF" stroke="#FFFFFF" stroke-width="0.4365" d="M5.646,1.688L5.533,1.875C5.495,1.911,5.495,1.949,5.495,1.987
	c0,0.038,0,0.038,0,0.079c0,0.259,0.228,0.638,0.645,1.056l18.68,19.7V3.273c0-0.19,0-0.38-0.038-0.57
	c-0.081-0.417-0.27-0.716-0.612-0.906l-0.228-0.109h2.743c-0.498,0.109-0.764,0.484-0.802,1.053
	c-0.038,0.152-0.038,0.306-0.038,0.42c0,0.036,0,0.074,0,0.112v24.795L3.44,4.265v22.1c0,0.038,0,0.076,0,0.114
	c0,0.113,0,0.27,0.038,0.42c0.076,0.568,0.342,0.941,0.835,1.051H1.538l0.228-0.109c0.417-0.186,0.607-0.521,0.646-0.941v-0.534
	V3.273L1.917,2.666c-0.152-0.19-0.266-0.341-0.379-0.451L1.001,1.797L0.813,1.688H5.646z"/>
<path fill="#FFFFFF" stroke="#FFFFFF" stroke-width="0.4365" d="M32.283,17.215c0-2.596,0.697-4.79,2.13-6.594
	c0.854-1.096,1.826-1.888,2.894-2.408c1.063-0.519,2.344-0.763,3.777-0.763c0.028,0,0.057,0,0.09,0
	c2.221,0.03,4.052,0.638,5.48,1.862c1.527,1.309,2.562,2.96,3.079,4.972c0.242,0.95,0.366,1.922,0.366,2.991
	c-0.034,2.84-0.793,5.189-2.316,7.11c-0.944,1.19-2.04,2.04-3.288,2.563c-0.95,0.397-2.074,0.583-3.322,0.583
	c-2.771,0-4.968-1.043-6.642-3.146c-1.49-1.921-2.249-4.303-2.249-7.144C32.283,17.215,32.283,17.215,32.283,17.215z M33.256,9.616
	c-2.287,2.074-3.416,4.639-3.445,7.72c0,1.404,0.275,2.78,0.854,4.151c0.579,1.529,1.523,2.838,2.804,3.967
	c2.163,1.922,4.721,2.898,7.738,2.898c3.136,0,5.75-1.039,7.914-3.111c2.315-2.225,3.463-4.854,3.463-7.905
	c0-3.022-1.182-5.617-3.521-7.72c-1.129-1.008-2.376-1.771-3.81-2.281c-1.309-0.444-2.647-0.679-4.081-0.707
	C38.162,6.627,35.509,7.604,33.256,9.616z"/>
<path fill="#FFFFFF" stroke="#FFFFFF" stroke-width="0.4365" d="M58.421,7.815h1.438c0.247,0,0.521,0.034,0.797,0.094
	c1.556,0.334,2.685,1.311,3.331,2.927c0.275,0.636,0.399,1.31,0.399,1.976c-0.033,1.408-0.494,2.622-1.438,3.628
	c-0.949,1.037-2.14,1.554-3.549,1.585h-0.978V7.815z M55.323,6.992c0.336,0.214,0.55,0.584,0.645,1.163l0.062,0.546v17.622
	l-0.062,0.58c-0.095,0.453-0.247,0.791-0.489,1.004l-0.156,0.119h3.805l-0.157-0.119c-0.332-0.332-0.517-0.887-0.55-1.584v-7.479
	h1.713l0.246,0.332c0.76,1.229,1.584,2.358,2.41,3.422c1.742,2.291,4.015,4.123,6.757,5.486l0.579,0.271h2.259v-0.154
	c-0.607-0.203-1.006-0.387-1.158-0.474c-1.129-0.612-2.32-1.621-3.568-3.051c-1.927-2.166-3.459-4.154-4.593-5.955l-0.242-0.392
	l0.336-0.154c0.489-0.241,0.883-0.489,1.225-0.733c0.759-0.576,1.381-1.278,1.84-2.16c0.428-0.821,0.641-1.675,0.641-2.563
	c0-1.585-0.612-2.92-1.813-4.047c-1.101-1.002-2.476-1.556-4.095-1.646L55.323,6.992z"/>
<path fill="#FFFFFF" stroke="#FFFFFF" stroke-width="0.4365" d="M197.216,7.815h1.433c0.248,0,0.522,0.034,0.798,0.094
	c1.561,0.334,2.689,1.311,3.331,2.927c0.274,0.636,0.397,1.31,0.397,1.976c-0.033,1.408-0.488,2.622-1.438,3.628
	c-0.943,1.037-2.135,1.554-3.544,1.585h-0.978V7.815z M194.118,6.992c0.337,0.214,0.551,0.584,0.641,1.163l0.061,0.546v17.622
	l-0.061,0.58c-0.09,0.453-0.242,0.791-0.49,1.004l-0.151,0.119h3.801l-0.152-0.119c-0.337-0.332-0.521-0.887-0.551-1.584v-7.479
	h1.714l0.242,0.332c0.764,1.229,1.589,2.358,2.415,3.422c1.742,2.291,4.009,4.123,6.756,5.486l0.579,0.271h2.253v-0.154
	c-0.607-0.203-1.001-0.387-1.157-0.474c-1.129-0.612-2.316-1.621-3.568-3.051c-1.921-2.166-3.458-4.154-4.589-5.955l-0.246-0.392
	l0.337-0.154c0.489-0.241,0.887-0.489,1.224-0.733c0.76-0.576,1.381-1.278,1.841-2.16c0.427-0.821,0.641-1.675,0.641-2.563
	c0-1.585-0.606-2.92-1.813-4.047c-1.097-1.002-2.472-1.556-4.095-1.646L194.118,6.992z"/>
<path fill="#FFFFFF" stroke="#FFFFFF" stroke-width="0.4365" d="M316.904,7.815h1.438c0.246,0,0.518,0.034,0.793,0.094
	c1.561,0.334,2.695,1.311,3.33,2.927c0.281,0.636,0.398,1.31,0.398,1.976c-0.027,1.408-0.488,2.622-1.438,3.628
	c-0.943,1.037-2.139,1.554-3.543,1.585h-0.979V7.815z M313.81,6.992c0.334,0.214,0.547,0.584,0.637,1.163l0.061,0.546v17.622
	l-0.061,0.58c-0.09,0.453-0.242,0.791-0.484,1.004l-0.152,0.119h3.797l-0.152-0.119c-0.336-0.332-0.518-0.887-0.551-1.584v-7.479
	h1.715l0.24,0.332c0.77,1.229,1.594,2.358,2.416,3.422c1.74,2.291,4.018,4.123,6.756,5.486l0.578,0.271h2.258v-0.154
	c-0.611-0.203-1.006-0.387-1.156-0.474c-1.129-0.612-2.316-1.621-3.568-3.051c-1.928-2.166-3.459-4.154-4.588-5.955l-0.246-0.392
	l0.336-0.154c0.488-0.241,0.883-0.489,1.219-0.733c0.766-0.576,1.383-1.278,1.846-2.16c0.428-0.821,0.643-1.675,0.643-2.563
	c0-1.585-0.613-2.92-1.814-4.047c-1.1-1.002-2.475-1.556-4.094-1.646L313.81,6.992z"/>
<path fill="#FFFFFF" stroke="#FFFFFF" stroke-width="0.4365" d="M384.851,7.815h1.438c0.242,0,0.518,0.034,0.799,0.094
	c1.551,0.334,2.686,1.311,3.324,2.927c0.277,0.636,0.4,1.31,0.4,1.976c-0.029,1.408-0.488,2.622-1.438,3.628
	c-0.945,1.037-2.137,1.554-3.545,1.585h-0.979V7.815z M381.753,6.992c0.338,0.214,0.551,0.584,0.641,1.163l0.063,0.546v17.622
	l-0.063,0.58c-0.09,0.453-0.24,0.791-0.484,1.004l-0.156,0.119h3.807l-0.158-0.119c-0.336-0.332-0.516-0.887-0.551-1.584v-7.479
	h1.715l0.24,0.332c0.766,1.229,1.594,2.358,2.416,3.422c1.74,2.291,4.014,4.123,6.756,5.486l0.578,0.271h2.26v-0.154
	c-0.607-0.203-1.006-0.387-1.158-0.474c-1.129-0.612-2.32-1.621-3.568-3.051c-1.932-2.166-3.463-4.154-4.592-5.955l-0.242-0.392
	l0.332-0.154c0.488-0.241,0.887-0.489,1.225-0.733c0.764-0.576,1.381-1.278,1.844-2.16c0.428-0.821,0.643-1.675,0.643-2.563
	c0-1.585-0.613-2.92-1.818-4.047c-1.1-1.002-2.471-1.556-4.09-1.646L381.753,6.992z"/>
<path fill="#FFFFFF" stroke="#FFFFFF" stroke-width="0.4365" d="M88.677,6.992l-0.303,1.621h-0.09L88.132,8.43
	c-0.275-0.332-0.584-0.521-0.978-0.521c-0.028,0-0.028,0-0.057,0h-6.984v18.426l0.062,0.58c0.057,0.547,0.275,0.907,0.641,1.121
	h-3.848l0.152-0.125c0.275-0.241,0.427-0.57,0.489-0.996l0.062-0.58V7.909h-6.984c-0.029,0-0.029,0-0.057,0
	c-0.398,0-0.702,0.189-0.978,0.521L69.5,8.613h-0.09l-0.309-1.621H88.677z"/>
<path fill="#FFFFFF" stroke="#FFFFFF" stroke-width="0.4365" d="M94.11,6.992l-0.152,0.121c-0.275,0.266-0.455,0.6-0.489,1.028
	l-0.056,0.553v7.624h13.664V8.694l-0.032-0.553c-0.091-0.549-0.304-0.939-0.669-1.149h3.886l-0.151,0.121
	c-0.309,0.266-0.49,0.6-0.522,1.028l-0.029,0.553v17.641l0.029,0.58c0.061,0.547,0.279,0.907,0.674,1.121h-3.886l0.151-0.125
	c0.274-0.241,0.456-0.57,0.518-0.996l0.032-0.58v-9.193H93.413v9.193l0.056,0.58c0.063,0.547,0.275,0.907,0.641,1.121h-3.886
	l0.152-0.125c0.337-0.326,0.517-0.871,0.551-1.576V8.694c-0.034-0.705-0.214-1.253-0.551-1.581l-0.152-0.121H94.11z"/>
<path fill="#FFFFFF" stroke="#FFFFFF" stroke-width="0.4365" d="M142.112,17.184h-8.403l4.336-10.448L142.112,17.184z M150.59,27.95
	l-0.153-0.071c-0.646-0.489-1.099-1.058-1.371-1.741L138.652,0.478l-2.131,3.407l0.114,0.04c0.114,0.036,0.229,0.114,0.266,0.192
	l0.114,0.261l0.114,0.266l0.341,0.835l-8.82,20.811c-0.114,0.266-0.229,0.495-0.343,0.688c-0.113,0.189-0.266,0.336-0.456,0.526
	c-0.113,0.108-0.265,0.261-0.455,0.375l-0.076,0.071h2.89l-0.114-0.109c-0.265-0.264-0.379-0.527-0.379-0.755l0.071-0.379
	c0.043-0.188,0.076-0.38,0.158-0.494l3.344-7.999h9.201l3.307,7.924l0.227,0.493l0.039,0.304c0,0.455-0.153,0.793-0.456,0.98
	l-0.114,0.035H150.59z"/>
<path fill="#FFFFFF" stroke="#FFFFFF" stroke-width="0.4365" d="M177.691,28.026c-0.028-0.028-0.061-0.058-0.089-0.058
	c-0.153-0.154-0.276-0.394-0.366-0.671l-0.033-0.244l-1.854-18.608c-0.034-0.147-0.034-0.304-0.034-0.456c0-0.028,0-0.09,0-0.151
	l0.034-0.337c0.028-0.091,0.089-0.214,0.18-0.36l0.09-0.148h-3.54l0.186,0.178c0.061,0.093,0.119,0.209,0.214,0.33l0.119,0.365
	v0.149l-7.321,16.323L157.56,8.202l-0.151-0.303c-0.062-0.123-0.09-0.247-0.09-0.398c0,0,0,0,0-0.029
	c0-0.118,0.028-0.208,0.057-0.301l0.062-0.178h-3.598l0.243,0.178c0.275,0.239,0.488,0.51,0.64,0.818l0.427,0.911l-1.433,16.841
	c-0.089,1.008-0.337,1.678-0.702,2.073l-0.186,0.212h1.983l-0.09-0.15c-0.028-0.148-0.061-0.27-0.089-0.426l-0.034-0.516
	c0-0.37,0-0.735,0.034-1.072l1.308-15.252l8.485,17.745l8.354-18.658l1.681,16.896c0,0.096,0,0.247,0,0.399
	c0,0.397-0.063,0.702-0.213,0.915l-0.091,0.119H177.691z"/>
<path fill="#FFFFFF" stroke="#FFFFFF" stroke-width="0.4365" d="M190.489,28.028l0.887-1.371l-0.125-0.154l-0.18,0.186
	c-0.309,0.332-0.612,0.488-0.887,0.517h-0.242h-5.857v-8.913h5.154c0.028,0,0.028,0,0.061,0c0.58,0,0.975,0.25,1.188,0.735v-2.258
	l-0.09,0.185c-0.213,0.334-0.579,0.515-1.036,0.515c-0.034,0-0.095,0-0.123,0h-5.154V7.815h5.492l0.393,0.034
	c0.304,0.06,0.55,0.214,0.764,0.486l0.123,0.213V6.992h-9.955c0.365,0.214,0.579,0.612,0.667,1.163l0.03,0.546v17.622l-0.03,0.58
	c-0.061,0.422-0.242,0.757-0.516,1.004l-0.151,0.121H190.489z"/>
<path fill="#FFFFFF" stroke="#FFFFFF" stroke-width="0.4365" d="M216.091,28.036l-0.153-0.125c-0.274-0.27-0.432-0.598-0.488-0.996
	l-0.063-0.58V8.691l0.063-0.55c0.09-0.461,0.242-0.816,0.488-1.028l0.153-0.121h-3.844c0.336,0.209,0.55,0.57,0.641,1.149
	l0.061,0.55v17.644l-0.061,0.58c-0.062,0.456-0.213,0.788-0.489,0.996l-0.151,0.125H216.091z"/>
<path fill="#FFFFFF" stroke="#FFFFFF" stroke-width="0.4365" d="M236.981,27.438l0.365,0.094l0.213-2.14l-0.123-0.031
	c-0.95,0.888-2.197,1.526-3.749,1.892c-0.825,0.186-1.589,0.279-2.291,0.279c-0.03,0-0.091,0-0.119,0c-0.034,0-0.034,0-0.063,0
	c-1.28,0-2.528-0.279-3.782-0.797c-1.859-0.823-3.354-2.076-4.421-3.753c-1.068-1.68-1.614-3.54-1.614-5.585
	c0-0.032,0-0.032,0-0.032c0-2.833,0.974-5.187,2.927-7.075c1.951-1.895,4.328-2.839,7.166-2.839c0.579,0,1.157,0.03,1.708,0.121
	c1.703,0.272,3.108,0.915,4.237,1.893l0.213,0.214l0.151-0.033l-0.427-2.133L237.1,7.541c-0.09,0.031-0.153,0.031-0.242,0.031
	c-0.034,0-0.09,0-0.153,0c-0.218,0-0.488-0.031-0.797-0.121c-1.215-0.354-2.04-0.56-2.467-0.647
	c-0.702-0.119-1.494-0.176-2.411-0.176c-3.382,0-6.158,0.944-8.383,2.865c-2.476,2.168-3.734,4.82-3.734,7.995
	c0,0.033,0,0.033,0,0.033c0.03,3.354,1.258,6.073,3.673,8.113c1.162,1.041,2.5,1.772,4.023,2.229
	c1.101,0.337,2.349,0.488,3.724,0.488c0.028,0,0.091,0,0.119,0c0.916,0,1.77-0.061,2.563-0.213l2.135-0.46l1.159-0.241
	c0.151-0.031,0.242-0.031,0.336-0.031L236.981,27.438z"/>
<path fill="#FFFFFF" stroke="#FFFFFF" stroke-width="0.4365" d="M250.522,19.409h-6.704l3.445-8.371L250.522,19.409z
	 M257.326,28.036l-0.096-0.064c-0.516-0.387-0.881-0.842-1.094-1.393l-8.39-20.559l-1.675,2.732l0.063,0.033
	c0.09,0.029,0.181,0.091,0.213,0.148l0.123,0.215l0.091,0.211l0.246,0.674L239.729,26.7c-0.09,0.215-0.181,0.398-0.271,0.548
	c-0.095,0.156-0.213,0.274-0.337,0.422c-0.095,0.093-0.213,0.216-0.369,0.302l-0.058,0.064h2.316l-0.119-0.094
	c-0.186-0.211-0.274-0.42-0.274-0.629l0.028-0.273c0.028-0.154,0.061-0.279,0.123-0.399l2.681-6.41h7.382l2.681,6.349l0.151,0.398
	l0.034,0.241c0,0.366-0.123,0.632-0.365,0.786l-0.063,0.031H257.326z"/>
<path fill="#FFFFFF" stroke="#FFFFFF" stroke-width="0.4365" d="M278.306,8.264c0-0.033,0-0.063,0-0.092
	c0-0.094,0-0.212,0.035-0.335c0.031-0.458,0.24-0.724,0.641-0.845h-2.197l0.186,0.09c0.27,0.147,0.42,0.389,0.482,0.724
	c0.033,0.154,0.033,0.306,0.033,0.458v15.657l-14.965-15.78c-0.332-0.335-0.516-0.641-0.516-0.854c0-0.023,0-0.023,0-0.057
	c0-0.028,0-0.028,0.031-0.059l0.092-0.178h-3.873l0.153,0.09l0.425,0.327c0.092,0.091,0.186,0.214,0.305,0.366l0.4,0.488V26.76
	v0.426c-0.035,0.336-0.182,0.606-0.52,0.759l-0.186,0.091h2.227c-0.393-0.091-0.611-0.39-0.67-0.85
	c-0.031-0.119-0.031-0.242-0.031-0.332c0-0.033,0-0.063,0-0.094V9.059l17.947,19.066V8.264z"/>
<path fill="#FFFFFF" stroke="#FFFFFF" stroke-width="0.4365" d="M299.507,27.95c-0.494-0.259-0.76-0.71-0.836-1.431l-0.039-0.688
	V2.717h2.615c1.932,0.043,3.523,0.65,4.695,1.865c1.172,1.224,1.742,2.859,1.742,4.877c0,3.844-1.398,6.244-4.203,7.195
	c-0.568,0.191-1.135,0.344-1.705,0.382l-0.34,0.038v0.23l0.266,0.109c0.189,0.04,0.451,0.115,0.797,0.156
	c0.379,0.035,0.717,0.073,1.02,0.073c0.039,0,0.115,0,0.152,0s0.037,0,0.076,0c1.096,0,2.195-0.339,3.297-1.024
	c1.096-0.688,2.018-1.604,2.676-2.781c0.721-1.257,1.068-2.631,1.068-4.188c0-2.326-0.803-4.262-2.377-5.785
	c-1.297-1.262-3.221-1.983-5.799-2.135c-0.459-0.04-7.957-0.04-7.957-0.04l0.191,0.154c0.422,0.455,0.648,1.1,0.688,1.978v22.008
	c-0.039,0.875-0.266,1.558-0.688,1.971l-0.191,0.147H299.507z"/>
<path fill="#FFFFFF" stroke="#FFFFFF" stroke-width="0.4365" d="M330.351,17.215c0-2.596,0.701-4.79,2.135-6.594
	c0.854-1.096,1.826-1.888,2.895-2.408c1.066-0.519,2.342-0.763,3.775-0.763c0.029,0,0.063,0,0.092,0
	c2.225,0.03,4.051,0.638,5.48,1.862c1.527,1.309,2.561,2.96,3.072,4.972c0.246,0.95,0.371,1.922,0.371,2.991
	c-0.033,2.84-0.791,5.189-2.314,7.11c-0.945,1.19-2.041,2.04-3.289,2.563c-0.949,0.397-2.074,0.583-3.32,0.583
	c-2.771,0-4.963-1.043-6.639-3.146c-1.494-1.921-2.258-4.303-2.258-7.144C330.351,17.215,330.351,17.215,330.351,17.215z
	 M331.328,9.616c-2.287,2.074-3.416,4.639-3.445,7.72c0,1.404,0.275,2.78,0.855,4.151c0.578,1.529,1.523,2.838,2.803,3.967
	c2.166,1.922,4.721,2.898,7.738,2.898c3.137,0,5.758-1.039,7.916-3.111c2.314-2.225,3.463-4.854,3.463-7.905
	c0-3.022-1.182-5.617-3.521-7.72c-1.129-1.008-2.377-1.771-3.811-2.281c-1.307-0.444-2.646-0.679-4.078-0.707
	C336.23,6.627,333.582,7.604,331.328,9.616z"/>
<path fill="#FFFFFF" stroke="#FFFFFF" stroke-width="0.4365" d="M357.414,28.036c-0.395-0.214-0.607-0.574-0.668-1.121l-0.035-0.58
	V7.815h2.1c1.555,0.034,2.826,0.523,3.77,1.498c0.941,0.946,1.4,2.261,1.43,3.904c-0.029,3.082-1.152,5.001-3.406,5.763
	c-0.455,0.156-0.912,0.282-1.367,0.339l-0.271,0.028V19.5l0.209,0.063c0.152,0.06,0.365,0.093,0.643,0.121
	c0.301,0.062,0.572,0.093,0.82,0.093c0.031,0,0.094,0,0.117,0c0.033,0,0.033,0,0.063,0c0.881,0,1.764-0.277,2.646-0.823
	c0.879-0.547,1.609-1.283,2.135-2.23c0.58-1.001,0.855-2.104,0.855-3.35c0-1.863-0.641-3.42-1.898-4.64
	c-1.033-1.011-2.58-1.556-4.648-1.708c-0.367-0.034-6.379-0.034-6.379-0.034l0.154,0.124c0.336,0.336,0.516,0.887,0.549,1.584
	v17.634c-0.033,0.705-0.213,1.25-0.549,1.576l-0.154,0.125H357.414z"/>
<path fill="#FFFFFF" stroke="#FFFFFF" stroke-width="0.4365" d="M378.519,6.992v1.556l-0.123-0.213
	c-0.215-0.272-0.457-0.427-0.76-0.486l-0.4-0.034h-5.488v9.653h5.152c0.033,0,0.09,0,0.123,0c0.455,0,0.826-0.181,1.039-0.515
	l0.092-0.185v2.258c-0.215-0.485-0.613-0.735-1.191-0.735c-0.029,0-0.029,0-0.063,0h-5.152v8.913h5.855h0.246
	c0.27-0.028,0.578-0.185,0.883-0.517l0.184-0.186l0.119,0.154l-0.881,1.371h-9.59l0.15-0.121c0.271-0.247,0.455-0.582,0.518-1.004
	l0.033-0.58V8.701l-0.033-0.546c-0.09-0.551-0.303-0.949-0.668-1.163H378.519z"/>
<path fill="#FFFFFF" stroke="#FFFFFF" stroke-width="0.4365" d="M407.265,28.036c-0.365-0.214-0.578-0.574-0.635-1.121l-0.063-0.58
	V7.909h6.979c0.029,0,0.029,0,0.063,0c0.398,0,0.697,0.189,0.979,0.521l0.146,0.183h0.094l0.309-1.621h-19.58l0.303,1.621h0.092
	l0.156-0.183c0.275-0.332,0.578-0.521,0.973-0.521c0.033,0,0.033,0,0.061,0h6.984v18.426l-0.063,0.58
	c-0.061,0.426-0.213,0.755-0.488,0.996l-0.15,0.125H407.265z"/>
<path fill="#FFFFFF" stroke="#FFFFFF" stroke-width="0.4365" d="M420.703,6.992l-0.152,0.121c-0.242,0.211-0.398,0.567-0.488,1.028
	l-0.057,0.55v17.644l0.057,0.58c0.061,0.398,0.213,0.727,0.488,0.996l0.152,0.125h-3.838l0.15-0.125
	c0.27-0.208,0.428-0.54,0.49-0.996l0.057-0.58V8.691l-0.057-0.55c-0.096-0.579-0.309-0.939-0.641-1.149H420.703z"/>
<path fill="#FFFFFF" stroke="#FFFFFF" stroke-width="0.4365" d="M434.261,28.028l0.883-1.371l-0.123-0.154l-0.18,0.186
	c-0.309,0.332-0.611,0.488-0.887,0.517h-0.242h-5.855v-8.913h5.152c0.029,0,0.029,0,0.063,0c0.578,0,0.973,0.25,1.189,0.735v-2.258
	l-0.094,0.185c-0.213,0.334-0.58,0.515-1.035,0.515c-0.027,0-0.094,0-0.123,0h-5.152V7.815h5.49l0.395,0.034
	c0.303,0.06,0.551,0.214,0.762,0.486l0.119,0.213V6.992h-9.953c0.365,0.214,0.582,0.612,0.674,1.163l0.031,0.546v17.622l-0.031,0.58
	c-0.063,0.422-0.242,0.757-0.518,1.004l-0.156,0.121H434.261z"/>
<path fill="#FFFFFF" stroke="#FFFFFF" stroke-width="0.4365" d="M437.544,24.667v2.528c0.063,0,0.125,0,0.154,0
	c0.09,0,0.184,0,0.213-0.032l0.428-0.033c0.246,0.033,0.639,0.154,1.217,0.402c1.283,0.546,2.475,0.82,3.535,0.82
	c1.557,0,2.838-0.459,3.906-1.37c1.1-0.919,1.646-2.171,1.646-3.751c0-0.031,0-0.031,0-0.031c-0.029-1.435-0.607-2.746-1.738-3.994
	c-1.189-1.283-2.803-2.957-4.904-5.061c-1.072-1.037-1.59-2.104-1.59-3.23c0,0,0,0,0-0.031s0-0.031,0-0.031
	c0-0.916,0.309-1.71,0.883-2.346c0.611-0.674,1.375-1.011,2.291-1.04c0.029,0,0.057,0,0.09,0c1.467,0,2.557,0.425,3.26,1.249
	l0.219,0.309h0.152V6.862l-0.309,0.121c-0.186,0.059-0.365,0.087-0.547,0.087c-0.033,0-0.033,0-0.064,0
	c-0.182,0-0.361-0.029-0.547-0.059l-0.854-0.208c-0.551-0.091-1.039-0.147-1.49-0.181c-1.465,0.034-2.748,0.479-3.848,1.393
	c-1.125,0.946-1.676,2.133-1.676,3.599c0,0,0,0,0,0.031c0,0,0,0,0,0.03c0,1.001,0.398,2.043,1.191,3.108
	c0.365,0.486,0.76,0.948,1.156,1.342l4.633,4.636c0.824,0.821,1.225,1.798,1.225,2.925c0,0.031,0,0.031,0,0.06
	c0,1.009-0.305,1.889-0.945,2.657c-0.646,0.76-1.494,1.129-2.533,1.129c-1.404,0-2.625-0.427-3.658-1.283
	c-0.395-0.306-0.732-0.702-1.068-1.157l-0.303-0.425H437.544z"/>
</svg>
