<svg xmlns="http://www.w3.org/2000/svg" width="571.084" height="304.217" viewBox="0 0 571.084 304.217"><g fill="#5E514E"><path d="M58.571 240.02v-5.453c8.577-.473 12.167-1.719 11.848-4.523-.157-1.718-1.085-4.833-2.804-8.887l-4.211-9.827h-28.53l-4.365 10.296c-1.871 4.203-2.65 6.546-2.65 7.946 0 3.276 2.49 4.216 12.474 4.995v5.453h-37.264v-5.453c10.288-.626 11.691-1.719 17.621-14.507l27.126-58.777h12.005l27.593 61.277c4.833 10.756 5.923 11.381 16.371 12.007v5.453h-45.214zm-9.045-61.742l-11.53 26.039h22.446l-10.916-26.039zM169.934 184.357l-24.015 57.534h-11.848l-23.85-59.241c-4.841-12.162-5.926-13.099-15.438-13.882-.464 0-.464 0-1.561-.156v-5.458h45.06v5.614c-9.819.469-12.32 1.255-12.32 4.212 0 1.872.625 4.208 2.969 10.449l15.12 40.846 16.524-42.726c1.872-4.668 2.493-6.857 2.493-8.254 0-2.966-2.332-3.901-11.533-4.527v-5.614h35.702v5.458c-9.662.311-11.533 2.03-17.303 15.745zM231.818 240.02v-5.453c8.576-.473 12.159-1.719 11.844-4.523-.145-1.718-1.085-4.833-2.8-8.887l-4.211-9.827h-28.533l-4.361 10.296c-1.873 4.203-2.655 6.546-2.655 7.946 0 3.276 2.493 4.216 12.478 4.995v5.453h-37.264v-5.453c10.291-.626 11.691-1.719 17.621-14.507l27.125-58.777h12.005l27.593 61.277c4.833 10.756 5.922 11.381 16.371 12.007v5.453h-45.213zm-9.044-61.742l-11.538 26.039h22.454l-10.916-26.039zM286.997 240.02v-5.615c13.256-.153 14.035-1.089 14.035-15.745v-34.302c0-14.499-.939-15.589-14.035-15.589v-5.614h45.836v5.614c-13.559.154-14.341.937-14.341 15.436v36.791c0 10.138 1.715 11.691 12.783 11.691 14.5 0 18.864-3.426 22.454-17.771h5.77v25.104h-72.502zM414.156 242.518c-26.036 0-44.278-17.308-44.278-41.943 0-22.296 19.799-39.91 44.908-39.91 25.249 0 44.27 17.308 44.27 40.382 0 24.006-19.021 41.471-44.9 41.471zm-.157-73.906c-14.963 0-24.943 12.784-24.943 32.434 0 19.949 10.449 33.673 25.568 33.673 14.966 0 24.946-12.941 24.946-32.119 0-20.42-10.132-33.988-25.571-33.988zM554.148 190.598l-.306 50.512h-6.706l-54.727-58.777v33.984c0 16.063 1.565 17.777 15.129 18.25v5.453h-38.2v-5.615c13.1-.311 14.188-1.872 14.188-21.514v-39.288c-3.433-3.272-7.486-4.68-14.497-4.834v-5.614h27.431l48.806 52.387-.154-25.568c-.159-19.796-.782-20.889-14.97-21.204v-5.614h38.514v5.614c-13.414.625-14.346 2.177-14.508 21.828z"/></g><g fill="#948A85"><path d="M231.558 283.85v3.636h-9.662v2.962h8.465v3.667h-8.465v3.332h10.092v3.637h-14.153v-17.234h13.723zM243.693 293.93c-3.514-.211-7.487-.487-7.487-4.676 0-4.004 3.091-5.834 7.395-5.834 5.048 0 8.101 2.229 8.131 5.834l-4.154.521c-.034-1.895-1.104-2.688-3.731-2.688-1.773 0-3.544.398-3.544 1.891 0 1.285 1.281 1.5 3.667 1.626 4.703.211 7.794.764 7.794 5.095 0 4.165-3.513 5.814-7.855 5.814-6.176 0-8.094-2.232-8.132-5.834l4.162-.521c.027 2.044 1.224 2.685 3.97 2.685 2.202-.026 3.789-.518 3.789-2.052 0-1.274-.944-1.677-4.005-1.861zM264.321 301.083h-4.089v-13.598h-5.354v-3.636h14.79v3.636h-5.347v13.598zM275.011 301.083h-4.583v-4.587h4.583v4.587zM291.424 289.817l-4.25-.518c.046-3.687 2.417-5.907 7.257-5.907 3.687 0 6.858 1.811 6.858 5.501 0 3.486-2.785 4.519-5.569 5.677-2.739 1.128-4.457 1.427-4.503 2.784h10.271v3.683h-14.771c-.088-7.276 3.011-8.186 6.923-9.521 2.531-.858 3.506-1.377 3.506-2.623 0-1.358-1.22-1.761-2.716-1.761-2.077.001-2.96.676-3.006 2.685zM319.509 292.398c0 5.95-2.01 9.003-7.258 9.003-5.224 0-7.264-3.053-7.264-9.003 0-5.952 2.017-9.006 7.264-9.006 5.225.001 7.258 3.054 7.258 9.006zm-4.162 0c0-3.851-.878-5.312-3.096-5.312-2.217 0-3.103 1.461-3.103 5.312 0 3.848.886 5.316 3.103 5.316 2.218.001 3.096-1.468 3.096-5.316zM323.846 301.037v-3.683h4.37v-8.35c-1.225.771-2.878 1.381-4.618 1.722v-3.897c2.761-.97 4.143-1.855 5.477-3.437h3.257v13.962h4.07v3.683h-12.556zM350.838 297.416v3.621h-4.089v-3.621h-8.117v-2.597l8.302-11.427h3.904v10.322h3.053v3.701h-3.053zm-4.089-7.736l-2.961 4.035h2.961v-4.035z"/></g><g fill="#948A85"><path d="M323.459 81.317l-30.393 30.394-5.701-5.692 41.947-41.946c3.935-14.702 4.365-29.553 4.297-37.543v-.357l-.323-.168c-13.263-7.094-29.926-11.104-47.109-11.365l9.718 9.723-10.033 10.022-10.027-10.022 9.713-9.723c-17.177.261-33.842 4.271-47.109 11.365l-.315.168-.008.357c-.061 7.99.368 22.841 4.304 37.543l41.939 41.946-5.692 5.692-30.394-30.394c8.262 19.736 20.851 35.723 37.251 47.052l.345.234.337-.234c16.395-11.329 28.991-27.316 37.253-47.052zm-22.952-52.338l10.033 10.038-10.033 10.035-10.042-10.035 10.042-10.038zm-29.281 0l10.034 10.038-10.034 10.035-10.042-10.035 10.042-10.038zm5.584 68.509c-.237-.738-.467-1.482-.721-2.224-6.16-18.197-15.995-33.987-26.639-44.724l5.703-5.492c.53.535 1.059 1.074 1.588 1.626 11.139 11.752 20.858 28.149 26.953 46.166.257.763.503 1.515.741 2.271l-7.625 2.377zm9.06-11.455h-4.026999999999999v-47.046h8.038999999999998v47.045h-4.012zm2.163 6.806c6.099-18.016 15.818-34.414 26.957-46.166.521-.552 1.059-1.091 1.587-1.626l5.701 5.492c-10.641 10.736-20.482 26.527-26.635 44.724-.254.742-.483 1.486-.723 2.224l-7.632-2.377c.246-.756.492-1.507.745-2.271zM319.033 107.272c2.271-3.145 4.333-6.44 6.137-9.788 6.781-12.639 11.315-24.579 13.462-35.514 3.046-13.465 3.607-26.744 3.53-35.52l-.054-5.418-4.792-2.575c-14.395-7.7-32.515-12.088-51.047-12.368h-.851c-18.496.28-36.615 4.673-51.03 12.381l-4.771 2.562-.054 5.431c-.069 8.771.484 22.047 3.532 35.504 2.153 10.938 6.678 22.877 13.459 35.516 1.803 3.345 3.866 6.644 6.106 9.743 5.535 8.028 12.013 15.222 19.271 21.428h4.043c-8.04-6.48-15.151-14.152-21.173-22.899-2.209-3.056-4.219-6.252-5.96-9.499-6.666-12.423-11.111-24.134-13.21-34.824-2.999-13.229-3.544-26.301-3.475-34.95l.039-3.896 3.429-1.841c14.046-7.506 31.744-11.787 49.836-12.063h.809c18.093.276 35.786 4.557 49.825 12.062l3.438 1.843.038 3.893c.068 8.653-.476 21.725-3.476 34.954-2.095 10.69-6.536 22.4-13.21 34.824-1.741 3.241-3.744 6.443-5.953 9.497-6.029 8.749-13.125 16.421-21.165 22.901h4.043c7.241-6.194 13.709-13.386 19.224-21.384zM305.601 127.617c5.922-5.551 11.293-11.758 15.987-18.565 2.339-3.249 4.464-6.643 6.32-10.095 6.928-12.899 11.557-25.127 13.763-36.332 3.106-13.747 3.674-27.277 3.597-36.204l-.068-7.259-6.413-3.45c-14.828-7.921-33.469-12.447-52.517-12.737h-.897c-18.986.29-37.612 4.818-52.449 12.751l-6.397 3.435-.069 7.275c-.069 8.925.491 22.443 3.591 36.16 2.217 11.233 6.85 23.461 13.77 36.36 1.856 3.446 3.981 6.844 6.313 10.08 4.703 6.812 10.073 13.025 16.01 18.58h-164.13v1.038h166.78500000000003c-6.659-5.947-12.642-12.713-17.809-20.212-2.317-3.208-4.422-6.567-6.256-9.977-6.874-12.807-11.468-24.942-13.662-36.068-3.084-13.641-3.648-27.078-3.575-35.949l.065-6.659 5.85-3.145c14.706-7.867 33.162-12.347 51.98-12.633h.882c18.894.286 37.344 4.766 52.027 12.618l5.875 3.161.063 6.643c.077 8.884-.491 22.317-3.575 35.965-2.19 11.125-6.788 23.261-13.663 36.068-1.832 3.41-3.935 6.77-6.251 9.977-5.179 7.502-11.154 14.28-17.799 20.212h166.771v-1.038h-164.119z"/></g></svg>