<svg xmlns="http://www.w3.org/2000/svg" width="448.863" height="28.875" viewBox="0 0 448.863 28.875"><path fill="#fff" stroke="#fff" stroke-width=".436" d="M5.646 1.688l-.113.187-.038.112v.079c0 .259.228.638.645 1.056l18.68 19.7v-19.549c0-.19 0-.38-.038-.57-.081-.417-.27-.716-.612-.906l-.228-.109h2.743c-.498.109-.764.484-.802 1.053-.038.152-.038.306-.038.42v24.907l-22.405-23.803v22.214000000000002c0 .113 0 .27.038.42.076.568.342.941.835 1.051h-2.775l.228-.109c.417-.186.607-.521.646-.941v-23.627l-.495-.607c-.152-.19-.266-.341-.379-.451l-.537-.418-.188-.109h4.833zM32.283 17.215c0-2.596.697-4.79 2.13-6.594.854-1.096 1.826-1.888 2.894-2.408 1.063-.519 2.344-.763 3.777-.763h.09c2.221.03 4.052.638 5.48 1.862 1.527 1.309 2.562 2.96 3.079 4.972.242.95.366 1.922.366 2.991-.034 2.84-.793 5.189-2.316 7.11-.944 1.19-2.04 2.04-3.288 2.563-.95.397-2.074.583-3.322.583-2.771 0-4.968-1.043-6.642-3.146-1.49-1.921-2.249-4.303-2.249-7.144l.001-.026zm.973-7.599c-2.287 2.074-3.416 4.639-3.445 7.72 0 1.404.275 2.78.854 4.151.579 1.529 1.523 2.838 2.804 3.967 2.163 1.922 4.721 2.898 7.738 2.898 3.136 0 5.75-1.039 7.914-3.111 2.315-2.225 3.463-4.854 3.463-7.905 0-3.022-1.182-5.617-3.521-7.72-1.129-1.008-2.376-1.771-3.81-2.281-1.309-.444-2.647-.679-4.081-.707-3.01-.001-5.663.976-7.916 2.988zM58.421 7.815h1.438c.247 0 .521.034.797.094 1.556.334 2.685 1.311 3.331 2.927.275.636.399 1.31.399 1.976-.033 1.408-.494 2.622-1.438 3.628-.949 1.037-2.14 1.554-3.549 1.585h-.978v-10.21zm-3.098-.823c.336.214.55.584.645 1.163l.062.546v17.622l-.062.58c-.095.453-.247.791-.489 1.004l-.156.119h3.805l-.157-.119c-.332-.332-.517-.887-.55-1.584v-7.479h1.713l.246.332c.76 1.229 1.584 2.358 2.41 3.422 1.742 2.291 4.015 4.123 6.757 5.486l.579.271h2.259v-.154c-.607-.203-1.006-.387-1.158-.474-1.129-.612-2.32-1.621-3.568-3.051-1.927-2.166-3.459-4.154-4.593-5.955l-.242-.392.336-.154c.489-.241.883-.489 1.225-.733.759-.576 1.381-1.278 1.84-2.16.428-.821.641-1.675.641-2.563 0-1.585-.612-2.92-1.813-4.047-1.101-1.002-2.476-1.556-4.095-1.646l-5.635-.034zM197.216 7.815h1.433c.248 0 .522.034.798.094 1.561.334 2.689 1.311 3.331 2.927.274.636.397 1.31.397 1.976-.033 1.408-.488 2.622-1.438 3.628-.943 1.037-2.135 1.554-3.544 1.585h-.978v-10.21zm-3.098-.823c.337.214.551.584.641 1.163l.061.546v17.622l-.061.58c-.09.453-.242.791-.49 1.004l-.151.119h3.801l-.152-.119c-.337-.332-.521-.887-.551-1.584v-7.479h1.714l.242.332c.764 1.229 1.589 2.358 2.415 3.422 1.742 2.291 4.009 4.123 6.756 5.486l.579.271h2.253v-.154c-.607-.203-1.001-.387-1.157-.474-1.129-.612-2.316-1.621-3.568-3.051-1.921-2.166-3.458-4.154-4.589-5.955l-.246-.392.337-.154c.489-.241.887-.489 1.224-.733.76-.576 1.381-1.278 1.841-2.16.427-.821.641-1.675.641-2.563 0-1.585-.606-2.92-1.813-4.047-1.097-1.002-2.472-1.556-4.095-1.646l-5.632-.034zM316.904 7.815h1.438c.246 0 .518.034.793.094 1.561.334 2.695 1.311 3.33 2.927.281.636.398 1.31.398 1.976-.027 1.408-.488 2.622-1.438 3.628-.943 1.037-2.139 1.554-3.543 1.585h-.979v-10.21zm-3.094-.823c.334.214.547.584.637 1.163l.061.546v17.622l-.061.58c-.09.453-.242.791-.484 1.004l-.152.119h3.797l-.152-.119c-.336-.332-.518-.887-.551-1.584v-7.479h1.715l.24.332c.77 1.229 1.594 2.358 2.416 3.422 1.74 2.291 4.018 4.123 6.756 5.486l.578.271h2.258v-.154c-.611-.203-1.006-.387-1.156-.474-1.129-.612-2.316-1.621-3.568-3.051-1.928-2.166-3.459-4.154-4.588-5.955l-.246-.392.336-.154c.488-.241.883-.489 1.219-.733.766-.576 1.383-1.278 1.846-2.16.428-.821.643-1.675.643-2.563 0-1.585-.613-2.92-1.814-4.047-1.1-1.002-2.475-1.556-4.094-1.646l-5.636-.034zM384.851 7.815h1.438c.242 0 .518.034.799.094 1.551.334 2.686 1.311 3.324 2.927.277.636.4 1.31.4 1.976-.029 1.408-.488 2.622-1.438 3.628-.945 1.037-2.137 1.554-3.545 1.585h-.979v-10.21zm-3.098-.823c.338.214.551.584.641 1.163l.063.546v17.622l-.063.58c-.09.453-.24.791-.484 1.004l-.156.119h3.807l-.158-.119c-.336-.332-.516-.887-.551-1.584v-7.479h1.715l.24.332c.766 1.229 1.594 2.358 2.416 3.422 1.74 2.291 4.014 4.123 6.756 5.486l.578.271h2.26v-.154c-.607-.203-1.006-.387-1.158-.474-1.129-.612-2.32-1.621-3.568-3.051-1.932-2.166-3.463-4.154-4.592-5.955l-.242-.392.332-.154c.488-.241.887-.489 1.225-.733.764-.576 1.381-1.278 1.844-2.16.428-.821.643-1.675.643-2.563 0-1.585-.613-2.92-1.818-4.047-1.1-1.002-2.471-1.556-4.09-1.646l-5.64-.034zM88.677 6.992l-.303 1.621h-.09l-.152-.183c-.275-.332-.584-.521-.978-.521h-7.041v18.426l.062.58c.057.547.275.907.641 1.121h-3.848l.152-.125c.275-.241.427-.57.489-.996l.062-.58v-18.426h-7.041c-.398 0-.702.189-.978.521l-.152.183h-.09l-.309-1.621h19.576zM94.11 6.992l-.152.121c-.275.266-.455.6-.489 1.028l-.056.553v7.624h13.664v-7.624l-.032-.553c-.091-.549-.304-.939-.669-1.149h3.886l-.151.121c-.309.266-.49.6-.522 1.028l-.029.553v17.641l.029.58c.061.547.279.907.674 1.121h-3.886l.151-.125c.274-.241.456-.57.518-.996l.032-.58v-9.193h-13.665v9.193l.056.58c.063.547.275.907.641 1.121h-3.886l.152-.125c.337-.326.517-.871.551-1.576v-17.641c-.034-.705-.214-1.253-.551-1.581l-.152-.121h3.886zM142.112 17.184h-8.403l4.336-10.448 4.067 10.448zm8.478 10.766l-.153-.071c-.646-.489-1.099-1.058-1.371-1.741l-10.414-25.66-2.131 3.407.114.04c.114.036.229.114.266.192l.114.261.114.266.341.835-8.82 20.811c-.114.266-.229.495-.343.688-.113.189-.266.336-.456.526-.113.108-.265.261-.455.375l-.076.071h2.89l-.114-.109c-.265-.264-.379-.527-.379-.755l.071-.379c.043-.188.076-.38.158-.494l3.344-7.999h9.201l3.307 7.924.227.493.039.304c0 .455-.153.793-.456.98l-.114.035h5.096zM177.691 28.026l-.089-.058c-.153-.154-.276-.394-.366-.671l-.033-.244-1.854-18.608c-.034-.147-.034-.304-.034-.456v-.151l.034-.337c.028-.091.089-.214.18-.36l.09-.148h-3.54l.186.178.214.33.119.365v.149l-7.321 16.323-7.717-16.136-.151-.303c-.062-.123-.09-.247-.09-.398v-.029c0-.118.028-.208.057-.301l.062-.178h-3.598l.243.178c.275.239.488.51.64.818l.427.911-1.433 16.841c-.089 1.008-.337 1.678-.702 2.073l-.186.212h1.983l-.09-.15-.089-.426-.034-.516c0-.37 0-.735.034-1.072l1.308-15.252 8.485 17.745 8.354-18.658 1.681 16.896v.399c0 .397-.063.702-.213.915l-.091.119h3.534zM190.489 28.028l.887-1.371-.125-.154-.18.186c-.309.332-.612.488-.887.517h-6.099v-8.913h5.215c.58 0 .975.25 1.188.735v-2.258l-.09.185c-.213.334-.579.515-1.036.515h-5.277v-9.655h5.492l.393.034c.304.06.55.214.764.486l.123.213v-1.556h-9.955c.365.214.579.612.667 1.163l.03.546v17.622l-.03.58c-.061.422-.242.757-.516 1.004l-.151.121h9.587zM216.091 28.036l-.153-.125c-.274-.27-.432-.598-.488-.996l-.063-.58v-17.644l.063-.55c.09-.461.242-.816.488-1.028l.153-.121h-3.844c.336.209.55.57.641 1.149l.061.55v17.644l-.061.58c-.062.456-.213.788-.489.996l-.151.125h3.843zM236.981 27.438l.365.094.213-2.14-.123-.031c-.95.888-2.197 1.526-3.749 1.892-.825.186-1.589.279-2.291.279h-.182c-1.28 0-2.528-.279-3.782-.797-1.859-.823-3.354-2.076-4.421-3.753-1.068-1.68-1.614-3.54-1.614-5.585v-.032c0-2.833.974-5.187 2.927-7.075 1.951-1.895 4.328-2.839 7.166-2.839.579 0 1.157.03 1.708.121 1.703.272 3.108.915 4.237 1.893l.213.214.151-.033-.427-2.133-.272.028-.242.031h-.153c-.218 0-.488-.031-.797-.121-1.215-.354-2.04-.56-2.467-.647-.702-.119-1.494-.176-2.411-.176-3.382 0-6.158.944-8.383 2.865-2.476 2.168-3.734 4.82-3.734 7.995v.033c.03 3.354 1.258 6.073 3.673 8.113 1.162 1.041 2.5 1.772 4.023 2.229 1.101.337 2.349.488 3.724.488h.119c.916 0 1.77-.061 2.563-.213l2.135-.46 1.159-.241c.151-.031.242-.031.336-.031l.336.032zM250.522 19.409h-6.704l3.445-8.371 3.259 8.371zm6.804 8.627l-.096-.064c-.516-.387-.881-.842-1.094-1.393l-8.39-20.559-1.675 2.732.063.033c.09.029.181.091.213.148l.123.215.091.211.246.674-7.078 16.667c-.09.215-.181.398-.271.548-.095.156-.213.274-.337.422-.095.093-.213.216-.369.302l-.058.064h2.316l-.119-.094c-.186-.211-.274-.42-.274-.629l.028-.273c.028-.154.061-.279.123-.399l2.681-6.41h7.382l2.681 6.349.151.398.034.241c0 .366-.123.632-.365.786l-.063.031h4.057zM278.306 8.264v-.092c0-.094 0-.212.035-.335.031-.458.24-.724.641-.845h-2.197l.186.09c.27.147.42.389.482.724.033.154.033.306.033.458v15.657l-14.965-15.78c-.332-.335-.516-.641-.516-.854v-.057l.031-.059.092-.178h-3.873l.153.09.425.327c.092.091.186.214.305.366l.4.488v18.921999999999997c-.035.336-.182.606-.52.759l-.186.091h2.227c-.393-.091-.611-.39-.67-.85-.031-.119-.031-.242-.031-.332v-17.795l17.947 19.066v-19.861zM299.507 27.95c-.494-.259-.76-.71-.836-1.431l-.039-.688v-23.114h2.615c1.932.043 3.523.65 4.695 1.865 1.172 1.224 1.742 2.859 1.742 4.877 0 3.844-1.398 6.244-4.203 7.195-.568.191-1.135.344-1.705.382l-.34.038v.23l.266.109c.189.04.451.115.797.156.379.035.717.073 1.02.073h.22799999999999998c1.096 0 2.195-.339 3.297-1.024 1.096-.688 2.018-1.604 2.676-2.781.721-1.257 1.068-2.631 1.068-4.188 0-2.326-.803-4.262-2.377-5.785-1.297-1.262-3.221-1.983-5.799-2.135-.459-.04-7.957-.04-7.957-.04l.191.154c.422.455.648 1.1.688 1.978v22.008c-.039.875-.266 1.558-.688 1.971l-.191.147h4.852zM330.351 17.215c0-2.596.701-4.79 2.135-6.594.854-1.096 1.826-1.888 2.895-2.408 1.066-.519 2.342-.763 3.775-.763h.092c2.225.03 4.051.638 5.48 1.862 1.527 1.309 2.561 2.96 3.072 4.972.246.95.371 1.922.371 2.991-.033 2.84-.791 5.189-2.314 7.11-.945 1.19-2.041 2.04-3.289 2.563-.949.397-2.074.583-3.32.583-2.771 0-4.963-1.043-6.639-3.146-1.494-1.921-2.258-4.303-2.258-7.144v-.026zm.977-7.599c-2.287 2.074-3.416 4.639-3.445 7.72 0 1.404.275 2.78.855 4.151.578 1.529 1.523 2.838 2.803 3.967 2.166 1.922 4.721 2.898 7.738 2.898 3.137 0 5.758-1.039 7.916-3.111 2.314-2.225 3.463-4.854 3.463-7.905 0-3.022-1.182-5.617-3.521-7.72-1.129-1.008-2.377-1.771-3.811-2.281-1.307-.444-2.646-.679-4.078-.707-3.018-.001-5.666.976-7.92 2.988zM357.414 28.036c-.395-.214-.607-.574-.668-1.121l-.035-.58v-18.52h2.1c1.555.034 2.826.523 3.77 1.498.941.946 1.4 2.261 1.43 3.904-.029 3.082-1.152 5.001-3.406 5.763-.455.156-.912.282-1.367.339l-.271.028v.153l.209.063c.152.06.365.093.643.121.301.062.572.093.82.093h.18c.881 0 1.764-.277 2.646-.823.879-.547 1.609-1.283 2.135-2.23.58-1.001.855-2.104.855-3.35 0-1.863-.641-3.42-1.898-4.64-1.033-1.011-2.58-1.556-4.648-1.708-.367-.034-6.379-.034-6.379-.034l.154.124c.336.336.516.887.549 1.584v17.634c-.033.705-.213 1.25-.549 1.576l-.154.125h3.884zM378.519 6.992v1.556l-.123-.213c-.215-.272-.457-.427-.76-.486l-.4-.034h-5.488v9.653h5.275c.455 0 .826-.181 1.039-.515l.092-.185v2.258c-.215-.485-.613-.735-1.191-.735h-5.215v8.913h6.101000000000001c.27-.028.578-.185.883-.517l.184-.186.119.154-.881 1.371h-9.59l.15-.121c.271-.247.455-.582.518-1.004l.033-.58v-17.62l-.033-.546c-.09-.551-.303-.949-.668-1.163h9.955zM407.265 28.036c-.365-.214-.578-.574-.635-1.121l-.063-.58v-18.426h7.042c.398 0 .697.189.979.521l.146.183h.094l.309-1.621h-19.58l.303 1.621h.092l.156-.183c.275-.332.578-.521.973-.521h7.045v18.426l-.063.58c-.061.426-.213.755-.488.996l-.15.125h3.84zM420.703 6.992l-.152.121c-.242.211-.398.567-.488 1.028l-.057.55v17.644l.057.58c.061.398.213.727.488.996l.152.125h-3.838l.15-.125c.27-.208.428-.54.49-.996l.057-.58v-17.644l-.057-.55c-.096-.579-.309-.939-.641-1.149h3.839zM434.261 28.028l.883-1.371-.123-.154-.18.186c-.309.332-.611.488-.887.517h-6.097v-8.913h5.215c.578 0 .973.25 1.189.735v-2.258l-.094.185c-.213.334-.58.515-1.035.515h-5.275v-9.655h5.49l.395.034c.303.06.551.214.762.486l.119.213v-1.556h-9.953c.365.214.582.612.674 1.163l.031.546v17.622l-.031.58c-.063.422-.242.757-.518 1.004l-.156.121h9.591zM437.544 24.667v2.528h.154c.09 0 .184 0 .213-.032l.428-.033c.246.033.639.154 1.217.402 1.283.546 2.475.82 3.535.82 1.557 0 2.838-.459 3.906-1.37 1.1-.919 1.646-2.171 1.646-3.751v-.031c-.029-1.435-.607-2.746-1.738-3.994-1.189-1.283-2.803-2.957-4.904-5.061-1.072-1.037-1.59-2.104-1.59-3.23v-.062c0-.916.309-1.71.883-2.346.611-.674 1.375-1.011 2.291-1.04h.09c1.467 0 2.557.425 3.26 1.249l.219.309h.152v-2.163l-.309.121c-.186.059-.365.087-.547.087h-.064c-.182 0-.361-.029-.547-.059l-.854-.208c-.551-.091-1.039-.147-1.49-.181-1.465.034-2.748.479-3.848 1.393-1.125.946-1.676 2.133-1.676 3.599v.061c0 1.001.398 2.043 1.191 3.108.365.486.76.948 1.156 1.342l4.633 4.636c.824.821 1.225 1.798 1.225 2.925v.06c0 1.009-.305 1.889-.945 2.657-.646.76-1.494 1.129-2.533 1.129-1.404 0-2.625-.427-3.658-1.283-.395-.306-.732-.702-1.068-1.157l-.303-.425h-.125z"/></svg>